<svg width="3000" height="2000" viewBox="0 0 3000 2000" fill="none" xmlns="http://www.w3.org/2000/svg">
<path fill-rule="evenodd" clip-rule="evenodd" d="M425 650C425 525.736 525.736 425 650 425H2350C2474.26 425 2575 525.736 2575 650V1350C2575 1474.26 2474.26 1575 2350 1575H650C525.736 1575 425 1474.26 425 1350V650ZM650 575C608.579 575 575 608.579 575 650V1350C575 1391.42 608.579 1425 650 1425H1425V1150C1425 1108.58 1391.42 1075 1350 1075H1150C1025.74 1075 925 974.264 925 850V575H650ZM1075 575V850C1075 891.421 1108.58 925 1150 925H1350C1474.26 925 1575 1025.74 1575 1150V1425H1925V1150C1925 1025.74 2025.74 925 2150 925H2425V650C2425 608.579 2391.42 575 2350 575H1075ZM2425 1075H2150C2108.58 1075 2075 1108.58 2075 1150V1425H2350C2391.42 1425 2425 1391.42 2425 1350V1075Z" fill="#D8DEE9"/>
</svg>
